<?xml version="1.0" encoding="UTF-8"?>
<svg width="108px" height="18px" viewBox="0 0 108 18" version="1.1" xmlns="http://www.w3.org/2000/svg" xmlns:xlink="http://www.w3.org/1999/xlink">
    <title>logo-technomart</title>
    <g id="Pages" stroke="none" stroke-width="1" fill="none" fill-rule="evenodd">
        <g id="Index" transform="translate(-185.000000, -12.000000)" fill="#FFFFFF">
            <g id="top-menu" transform="translate(-40.000000, 0.000000)">
                <g id="logo-technomart" transform="translate(225.000000, 12.000000)">
                    <path d="M103.847478,2.65852174 L103.847478,17.4498261 L101.734435,17.4498261 L101.734435,2.65852174 L97.977913,2.65852174 L97.977913,1.01504348 L107.604,1.01504348 L107.604,2.65852174 L103.847478,2.65852174 Z M95.7122609,11.3572174 C95.3444348,11.8189565 94.8826957,12.1476522 94.3270435,12.3433043 C93.7713913,12.5389565 93.110087,12.6367826 92.3431304,12.6367826 C91.9831304,12.6367826 91.5761739,12.6133043 91.1222609,12.5663478 C90.6683478,12.5193913 90.2926957,12.4646087 89.9953043,12.402 L89.9953043,17.4498261 L87.8822609,17.4498261 L87.8822609,1.24982609 C88.4770435,1.07765217 89.0757391,0.956347826 89.6783478,0.885913043 C90.2809565,0.815478261 90.9344348,0.78026087 91.6387826,0.78026087 C92.577913,0.78026087 93.3761739,0.878086957 94.0335652,1.07373913 C94.6909565,1.2693913 95.2231304,1.59417391 95.630087,2.04808696 C96.0370435,2.502 96.3344348,3.1046087 96.5222609,3.85591304 C96.710087,4.60721739 96.804,5.53852174 96.804,6.64982609 C96.804,7.79243478 96.714,8.74721739 96.534,9.51417391 C96.354,10.2811304 96.080087,10.8954783 95.7122609,11.3572174 Z M94.5148696,4.53678261 C94.3974783,3.97330435 94.2135652,3.52721739 93.9631304,3.19852174 C93.7126957,2.86982609 93.3957391,2.63895652 93.0122609,2.50591304 C92.6287826,2.37286957 92.1709565,2.30634783 91.6387826,2.30634783 L89.9953043,2.30634783 L89.9953043,10.9933043 L91.6387826,10.9933043 C92.1709565,10.9933043 92.6287826,10.9267826 93.0122609,10.7937391 C93.3957391,10.6606957 93.7126957,10.4298261 93.9631304,10.1011304 C94.2135652,9.77243478 94.3974783,9.32634783 94.5148696,8.76286957 C94.6322609,8.1993913 94.6909565,7.49504348 94.6909565,6.64982609 C94.6909565,5.8046087 94.6322609,5.10026087 94.5148696,4.53678261 Z M82.5996522,13.2237391 L77.904,13.2237391 L76.8474783,17.4498261 L74.7344348,17.4498261 L78.7257391,1.01504348 L81.777913,1.01504348 L85.7692174,17.4498261 L83.6561739,17.4498261 L82.5996522,13.2237391 Z M80.2987826,3.36286957 L80.2048696,3.36286957 L78.2561739,11.5802609 L82.2474783,11.5802609 L80.2987826,3.36286957 Z M70.1561739,5.24113043 L70.0387826,5.24113043 L66.6344348,15.3367826 L64.5213913,15.3367826 L61.1170435,5.24113043 L60.9996522,5.24113043 L60.2953043,17.4498261 L58.1822609,17.4498261 L59.1213913,1.01504348 L61.704,1.01504348 L65.5309565,12.2846087 L65.6248696,12.2846087 L69.4518261,1.01504348 L72.0344348,1.01504348 L72.9735652,17.4498261 L70.8605217,17.4498261 L70.1561739,5.24113043 Z M54.3787826,15.9237391 C53.9405217,16.5654783 53.4122609,17.0193913 52.794,17.2854783 C52.1757391,17.5515652 51.4674783,17.6846087 50.6692174,17.6846087 C49.8709565,17.6846087 49.1626957,17.5515652 48.5444348,17.2854783 C47.9261739,17.0193913 47.397913,16.5654783 46.9596522,15.9237391 C46.5213913,15.282 46.1887826,14.4172174 45.9618261,13.3293913 C45.7348696,12.2415652 45.6213913,10.875913 45.6213913,9.23243478 C45.6213913,7.58895652 45.7348696,6.22330435 45.9618261,5.13547826 C46.1887826,4.04765217 46.5213913,3.18286957 46.9596522,2.54113043 C47.397913,1.8993913 47.9261739,1.44547826 48.5444348,1.1793913 C49.1626957,0.913304348 49.8709565,0.78026087 50.6692174,0.78026087 C51.4674783,0.78026087 52.1757391,0.913304348 52.794,1.1793913 C53.4122609,1.44547826 53.9405217,1.8993913 54.3787826,2.54113043 C54.8170435,3.18286957 55.1496522,4.04765217 55.3766087,5.13547826 C55.6035652,6.22330435 55.7170435,7.58895652 55.7170435,9.23243478 C55.7170435,10.875913 55.6035652,12.2415652 55.3766087,13.3293913 C55.1496522,14.4172174 54.8170435,15.282 54.3787826,15.9237391 Z M53.3574783,5.75765217 C53.1931304,4.84982609 52.977913,4.12982609 52.7118261,3.59765217 C52.4457391,3.06547826 52.1326957,2.69765217 51.7726957,2.49417391 C51.4126957,2.29069565 51.0448696,2.18895652 50.6692174,2.18895652 C50.2935652,2.18895652 49.9257391,2.29069565 49.5657391,2.49417391 C49.2057391,2.69765217 48.8926957,3.06547826 48.6266087,3.59765217 C48.3605217,4.12982609 48.1453043,4.84982609 47.9809565,5.75765217 C47.8166087,6.66547826 47.7344348,7.82373913 47.7344348,9.23243478 C47.7344348,10.6411304 47.8166087,11.7993913 47.9809565,12.7072174 C48.1453043,13.6150435 48.3605217,14.3350435 48.6266087,14.8672174 C48.8926957,15.3993913 49.2057391,15.7672174 49.5657391,15.9706957 C49.9257391,16.1741739 50.2935652,16.275913 50.6692174,16.275913 C51.0448696,16.275913 51.4126957,16.1741739 51.7726957,15.9706957 C52.1326957,15.7672174 52.4457391,15.3993913 52.7118261,14.8672174 C52.977913,14.3350435 53.1931304,13.6150435 53.3574783,12.7072174 C53.5218261,11.7993913 53.604,10.6411304 53.604,9.23243478 C53.604,7.82373913 53.5218261,6.66547826 53.3574783,5.75765217 Z M40.6909565,9.93678261 L35.7605217,9.93678261 L35.7605217,17.4498261 L33.6474783,17.4498261 L33.6474783,1.01504348 L35.7605217,1.01504348 L35.7605217,8.29330435 L40.6909565,8.29330435 L40.6909565,1.01504348 L42.804,1.01504348 L42.804,17.4498261 L40.6909565,17.4498261 L40.6909565,9.93678261 Z M29.5395652,17.4498261 L26.6047826,10.4063478 L23.67,17.4498261 L21.5569565,17.4498261 L25.0786957,8.99765217 L21.9091304,1.01504348 L24.0221739,1.01504348 L26.6047826,7.58895652 L29.1873913,1.01504348 L31.3004348,1.01504348 L28.1308696,8.99765217 L31.6526087,17.4498261 L29.5395652,17.4498261 Z M12.2830435,1.01504348 L20.2656522,1.01504348 L20.2656522,2.65852174 L14.396087,2.65852174 L14.396087,8.05852174 L19.5613043,8.05852174 L19.5613043,9.702 L14.396087,9.702 L14.396087,15.8063478 L20.2656522,15.8063478 L20.2656522,17.4498261 L12.2830435,17.4498261 L12.2830435,1.01504348 Z M6.64826087,17.4498261 L4.53521739,17.4498261 L4.53521739,2.65852174 L0.778695652,2.65852174 L0.778695652,1.01504348 L10.4047826,1.01504348 L10.4047826,2.65852174 L6.64826087,2.65852174 L6.64826087,17.4498261 Z" id="Shape"></path>
                </g>
            </g>
        </g>
    </g>
</svg>